<mxfile host="app.diagrams.net" modified="2024-05-25T18:52:44.390Z" agent="Mozilla/5.0 (Macintosh; Intel Mac OS X 10_15_7) AppleWebKit/605.1.15 (KHTML, like Gecko) Version/17.5 Safari/605.1.15" version="24.4.8" etag="XgKhLgb8tQZ-4hMf788W" type="github">
  <diagram name="Page-1" id="cKJY1jNnzcriHS99Vy47">
    <mxGraphModel>
      <root>
        <mxCell id="0" />
        <mxCell id="1" parent="0" />
      </root>
    </mxGraphModel>
  </diagram>
</mxfile>
